<?xml version="1.0" encoding="utf-8"?>
<!-- Generator: Adobe Illustrator 15.0.0, SVG Export Plug-In . SVG Version: 6.00 Build 0)  -->
<!DOCTYPE svg PUBLIC "-//W3C//DTD SVG 1.1//EN" "http://www.w3.org/Graphics/SVG/1.1/DTD/svg11.dtd">
<svg version="1.1" id="Layer_1" xmlns="http://www.w3.org/2000/svg" xmlns:xlink="http://www.w3.org/1999/xlink" x="0px" y="0px"
	 width="512px" height="512px" viewBox="0 0 512 512" enable-background="new 0 0 512 512" xml:space="preserve">
<circle fill="#00C853" cx="256" cy="256" r="235.597"/>
<g>
	<path fill="#424242" d="M405.575,106.903c41.02,41.025,61.534,90.552,61.534,148.583c0,58.036-20.515,107.563-61.534,148.584
		c-41.024,41.024-90.553,61.534-148.583,61.534c-58.036,0-107.563-20.51-148.583-61.534
		c-41.025-41.021-61.535-90.548-61.535-148.584c0-58.031,20.51-107.559,61.535-148.583c41.02-41.02,90.548-61.535,148.583-61.535
		C315.022,45.368,364.551,65.883,405.575,106.903z M256.992,135.419c-33.22,0-61.535,11.707-84.948,35.12
		s-35.12,51.732-35.12,84.948c0,33.221,11.707,61.534,35.12,84.948c23.413,23.413,51.728,35.119,84.948,35.119
		c33.215,0,61.535-11.706,84.948-35.119c23.413-23.414,35.12-51.728,35.12-84.948c0-33.215-11.707-61.535-35.12-84.948
		S290.207,135.419,256.992,135.419z M320.627,191.851c17.607,17.611,26.415,38.825,26.415,63.636
		c0,24.815-8.808,46.029-26.415,63.636c-17.611,17.611-38.824,26.415-63.635,26.415c-24.815,0-46.029-8.804-63.636-26.415
		c-17.611-17.606-26.415-38.82-26.415-63.636c0-24.811,8.804-46.024,26.415-63.636c17.607-17.607,38.82-26.415,63.636-26.415
		C281.803,165.436,303.016,174.244,320.627,191.851z M256.992,195.453c-16.612,0-30.768,5.854-42.474,17.56
		s-17.56,25.866-17.56,42.474c0,16.612,5.853,30.768,17.56,42.474c11.707,11.707,25.862,17.561,42.474,17.561
		c16.608,0,30.767-5.854,42.474-17.561c11.706-11.706,17.56-25.861,17.56-42.474c0-16.608-5.854-30.767-17.56-42.474
		C287.759,201.306,273.6,195.453,256.992,195.453z M278.153,234.325c5.9,5.905,8.855,12.958,8.855,21.162
		c0,8.208-2.955,15.262-8.855,21.162c-5.905,5.904-12.958,8.854-21.162,8.854c-8.208,0-15.262-2.95-21.162-8.854
		c-5.905-5.9-8.855-12.954-8.855-21.162c0-8.203,2.95-15.257,8.855-21.162c5.9-5.9,12.954-8.855,21.162-8.855
		C265.195,225.47,272.248,228.424,278.153,234.325z"/>
</g>
</svg>
